<svg width="375" height="812" viewBox="0 0 375 812" fill="none" xmlns="http://www.w3.org/2000/svg">
  <!-- iPhone Frame -->
  <rect width="375" height="812" rx="40" ry="40" fill="#000"/>
  <rect x="15" y="15" width="345" height="782" rx="35" ry="35" fill="#f0f0f0"/>
  
  <!-- Status Bar -->
  <rect x="15" y="15" width="345" height="44" fill="#000"/>
  <text x="30" y="35" font-family="system-ui" font-size="14" fill="white" font-weight="500">9:41</text>
  <text x="320" y="35" font-family="system-ui" font-size="14" fill="white" font-weight="500">100%</text>
  
  <!-- Header Bar -->
  <rect x="15" y="59" width="345" height="60" fill="#667eea"/>
  <text x="187.5" y="95" font-family="system-ui" font-size="18" font-weight="bold" text-anchor="middle" fill="white">📍 愛知県 - 名古屋エリア</text>
  
  <!-- Map Area -->
  <rect x="30" y="139" width="315" height="400" rx="15" ry="15" fill="#e8f4f8"/>
  
  <!-- Map Grid Lines -->
  <line x1="30" y1="200" x2="345" y2="200" stroke="#ddd" stroke-width="1"/>
  <line x1="30" y1="300" x2="345" y2="300" stroke="#ddd" stroke-width="1"/>
  <line x1="30" y1="400" x2="345" y2="400" stroke="#ddd" stroke-width="1"/>
  <line x1="100" y1="139" x2="100" y2="539" stroke="#ddd" stroke-width="1"/>
  <line x1="200" y1="139" x2="200" y2="539" stroke="#ddd" stroke-width="1"/>
  <line x1="300" y1="139" x2="300" y2="539" stroke="#ddd" stroke-width="1"/>
  
  <!-- Station Pins -->
  <circle cx="120" cy="180" r="12" fill="#ff6b6b"/>
  <text x="120" y="185" font-family="system-ui" font-size="8" font-weight="bold" text-anchor="middle" fill="white">駅</text>
  <text x="120" y="200" font-family="system-ui" font-size="10" text-anchor="middle" fill="#333">名古屋駅</text>
  
  <circle cx="220" cy="250" r="12" fill="#ff6b6b"/>
  <text x="220" y="255" font-family="system-ui" font-size="8" font-weight="bold" text-anchor="middle" fill="white">駅</text>
  <text x="220" y="270" font-family="system-ui" font-size="10" text-anchor="middle" fill="#333">栄駅</text>
  
  <circle cx="170" cy="350" r="12" fill="#ff6b6b"/>
  <text x="170" y="355" font-family="system-ui" font-size="8" font-weight="bold" text-anchor="middle" fill="white">駅</text>
  <text x="170" y="370" font-family="system-ui" font-size="10" text-anchor="middle" fill="#333">金山駅</text>
  
  <circle cx="280" cy="200" r="12" fill="#ff6b6b"/>
  <text x="280" y="205" font-family="system-ui" font-size="8" font-weight="bold" text-anchor="middle" fill="white">駅</text>
  <text x="280" y="220" font-family="system-ui" font-size="10" text-anchor="middle" fill="#333">大曽根駅</text>
  
  <!-- Current Location -->
  <circle cx="187.5" cy="300" r="8" fill="#4CAF50"/>
  <circle cx="187.5" cy="300" r="4" fill="white"/>
  <text x="187.5" y="325" font-family="system-ui" font-size="10" text-anchor="middle" fill="#333">現在地</text>
  
  <!-- AI Recommendation Card -->
  <rect x="30" y="559" width="315" height="80" rx="15" ry="15" fill="white" stroke="#ddd" stroke-width="1"/>
  <text x="50" y="580" font-family="system-ui" font-size="14" font-weight="bold" fill="#333">🤖 AI推奨エリア</text>
  <text x="50" y="600" font-family="system-ui" font-size="12" fill="#666">名古屋駅周辺で需要増加中</text>
  <text x="50" y="620" font-family="system-ui" font-size="12" fill="#666">🌧️ 雨予報のため配車リクエスト増加</text>
  
  <!-- Bottom Navigation -->
  <rect x="15" y="659" width="345" height="80" fill="white"/>
  <line x1="15" y1="659" x2="360" y2="659" stroke="#eee" stroke-width="1"/>
  
  <rect x="50" y="679" width="80" height="40" rx="8" ry="8" fill="#667eea"/>
  <text x="90" y="705" font-family="system-ui" font-size="12" font-weight="bold" text-anchor="middle" fill="white">配車依頼</text>
  
  <rect x="150" y="679" width="80" height="40" rx="8" ry="8" fill="#f0f0f0"/>
  <text x="190" y="705" font-family="system-ui" font-size="12" text-anchor="middle" fill="#666">設定</text>
  
  <rect x="250" y="679" width="75" height="40" rx="8" ry="8" fill="#f0f0f0"/>
  <text x="287.5" y="705" font-family="system-ui" font-size="12" text-anchor="middle" fill="#666">履歴</text>
</svg>