<svg width="375" height="812" viewBox="0 0 375 812" fill="none" xmlns="http://www.w3.org/2000/svg">
  <!-- iPhone Frame -->
  <rect width="375" height="812" rx="40" ry="40" fill="#000"/>
  <rect x="15" y="15" width="345" height="782" rx="35" ry="35" fill="#fff"/>
  
  <!-- Status Bar -->
  <rect x="15" y="15" width="345" height="44" fill="#000"/>
  <text x="30" y="35" font-family="system-ui" font-size="14" fill="white" font-weight="500">9:41</text>
  <text x="320" y="35" font-family="system-ui" font-size="14" fill="white" font-weight="500">100%</text>
  
  <!-- Header Bar -->
  <rect x="15" y="59" width="345" height="60" fill="#34C759"/>
  <text x="187.5" y="95" font-family="system-ui" font-size="18" font-weight="bold" text-anchor="middle" fill="white">🚕 配車予約</text>
  
  <!-- Pickup Location -->
  <rect x="30" y="139" width="315" height="60" rx="12" ry="12" fill="#f5f5f5" stroke="#ddd" stroke-width="1"/>
  <text x="50" y="160" font-family="system-ui" font-size="12" font-weight="bold" fill="#666">乗車地</text>
  <text x="50" y="180" font-family="system-ui" font-size="16" fill="#333">📍 名古屋駅ハチ公口近く</text>
  
  <!-- Destination -->
  <rect x="30" y="219" width="315" height="60" rx="12" ry="12" fill="#f5f5f5" stroke="#ddd" stroke-width="1"/>
  <text x="50" y="240" font-family="system-ui" font-size="12" font-weight="bold" fill="#666">目的地</text>
  <text x="50" y="260" font-family="system-ui" font-size="16" fill="#333">🎯 栄駅周辺 (オアシス21)</text>
  
  <!-- Route Info -->
  <rect x="30" y="299" width="315" height="120" rx="12" ry="12" fill="#f0f8ff" stroke="#4facfe" stroke-width="1"/>
  <text x="50" y="325" font-family="system-ui" font-size="16" font-weight="bold" fill="#333">📊 配車情報</text>
  
  <text x="50" y="350" font-family="system-ui" font-size="14" fill="#666">予想料金: <tspan font-weight="bold" fill="#333">¥1,800</tspan></text>
  <text x="50" y="370" font-family="system-ui" font-size="14" fill="#666">到着時間: <tspan font-weight="bold" fill="#333">約15分</tspan></text>
  <text x="50" y="390" font-family="system-ui" font-size="14" fill="#666">利用可能ドライバー: <tspan font-weight="bold" fill="#34C759">3名</tspan></text>
  
  <!-- Station Benefits -->
  <rect x="30" y="439" width="315" height="80" rx="12" ry="12" fill="#fff3cd" stroke="#ffc107" stroke-width="1"/>
  <text x="50" y="465" font-family="system-ui" font-size="14" font-weight="bold" fill="#333">🚇 駅情報連携</text>
  <text x="50" y="485" font-family="system-ui" font-size="12" fill="#666">• 名古屋駅は現在高需要エリア</text>
  <text x="50" y="505" font-family="system-ui" font-size="12" fill="#666">• 栄駅周辺は雨対応の屋根付きエリア多数</text>
  
  <!-- Weather Alert -->
  <rect x="30" y="539" width="315" height="60" rx="12" ry="12" fill="#e3f2fd" stroke="#2196F3" stroke-width="1"/>
  <text x="50" y="565" font-family="system-ui" font-size="14" font-weight="bold" fill="#333">🌧️ 天気情報</text>
  <text x="50" y="585" font-family="system-ui" font-size="12" fill="#666">雨予報のため通常より配車時間が長くなる可能性があります</text>
  
  <!-- Book Button -->
  <rect x="30" y="619" width="315" height="60" rx="15" ry="15" fill="#34C759"/>
  <text x="187.5" y="655" font-family="system-ui" font-size="18" font-weight="bold" text-anchor="middle" fill="white">配車をリクエスト</text>
  
  <!-- Alternative Options -->
  <rect x="30" y="699" width="150" height="40" rx="8" ry="8" fill="#f0f0f0"/>
  <text x="105" y="724" font-family="system-ui" font-size="12" text-anchor="middle" fill="#666">時間指定予約</text>
  
  <rect x="195" y="699" width="150" height="40" rx="8" ry="8" fill="#f0f0f0"/>
  <text x="270" y="724" font-family="system-ui" font-size="12" text-anchor="middle" fill="#666">大型車両</text>
  
  <!-- Bottom Info -->
  <rect x="30" y="759" width="315" height="30" fill="rgba(52, 199, 89, 0.1)" rx="8" ry="8"/>
  <text x="187.5" y="779" font-family="system-ui" font-size="10" text-anchor="middle" fill="#34C759">💳 支払い: 登録済みクレジットカード | 🔒 安全運転認証ドライバー</text>
</svg>